<svg width="29" height="14" viewBox="0 0 29 14" fill="none" xmlns="http://www.w3.org/2000/svg">
<path d="M28.5103 8.31712V5.68152H27.1423L27.1425 8.31712H28.5103ZM25.7035 11.2832C25.9091 11.2832 26.1024 11.2031 26.2478 11.0577C26.3932 10.9123 26.4732 10.719 26.4732 10.5134L26.473 8.65455L26.4729 8.65189L26.473 8.64924L26.4726 3.48591C26.4726 3.06162 26.1273 2.71639 25.703 2.71639H24.4084L24.409 11.2832L25.7035 11.2832ZM21.6916 13.7746C21.837 13.92 22.0302 14 22.2358 14L22.9701 13.9999C23.3944 13.9998 23.7396 13.6546 23.7396 13.2302L23.7388 2.38397L23.7387 2.38162L23.7388 2.37927L23.7387 0.76964C23.7387 0.564042 23.6586 0.370757 23.5132 0.225405C23.3679 0.0800539 23.1746 0 22.9691 0L22.2349 0.000129431C21.8106 0.000164676 21.4654 0.345474 21.4654 0.769816L21.4657 5.34526L21.4658 5.34718L21.4657 5.34912L21.4661 13.2304C21.4662 13.436 21.5462 13.6293 21.6916 13.7746ZM20.7963 8.31762L20.7962 5.68201L0.000188134 5.68283L0 8.31844L20.7963 8.31762Z" fill="#202020"/>
</svg>
