<svg width="41" height="24" viewBox="0 0 41 24" fill="none" xmlns="http://www.w3.org/2000/svg">
<path d="M0 14.2579V9.73976H2.34512L2.34475 14.2579H0ZM4.8116 19.3426C4.45914 19.3426 4.1278 19.2053 3.87859 18.956C3.62937 18.7068 3.49218 18.3754 3.4922 18.023L3.49246 14.8364L3.49268 14.8318L3.49246 14.8273L3.49316 5.97588C3.49326 5.24852 4.08516 4.6567 4.81256 4.6567H7.03182L7.03074 19.3426L4.8116 19.3426ZM11.6891 23.6137C11.4399 23.8628 11.1087 24 10.7563 24L9.49744 23.9998C8.77004 23.9997 8.17826 23.4078 8.17826 22.6804L8.17963 4.08683L8.17983 4.08281L8.17963 4.07878L8.17983 1.31942C8.17983 0.966967 8.31711 0.635622 8.56636 0.386448C8.81557 0.137275 9.14682 3.99508e-05 9.49923 3.99508e-05L10.7577 0.000261831C11.4852 0.000322252 12.077 0.59228 12.077 1.31972L12.0765 9.16333L12.0763 9.16662L12.0765 9.16994L12.0757 22.6807C12.0757 23.0331 11.9384 23.3645 11.6891 23.6137ZM13.2239 14.2588L13.2242 9.74061L27.0562 9.74202L27.0566 14.2602L13.2239 14.2588ZM30.7829 23.9998L29.5244 23.9999C28.7969 23.9999 28.205 23.4081 28.2049 22.6805L28.2034 1.3196C28.2034 0.5921 28.7952 0.00022131 29.5227 0.00014075L30.7812 0C31.1337 0 31.465 0.137154 31.7142 0.386348C31.9634 0.635602 32.1006 0.966867 32.1007 1.3194L32.102 19.9163L32.1022 22.6803C32.1022 23.4078 31.5104 23.9997 30.7829 23.9998ZM35.4689 19.3425L33.2497 19.3427L33.2486 4.6568L35.4678 4.65662C35.8203 4.65662 36.1516 4.79377 36.4008 5.04297C36.65 5.29214 36.7873 5.62349 36.7873 5.97594L36.7876 9.16803V9.16992L36.7882 18.023C36.7882 18.7505 36.1964 19.3424 35.4689 19.3425ZM40.2802 14.261H37.9357L37.9354 9.74286H40.2802V14.261Z" fill="#174DAD"/>
</svg>
